<svg version="1.1" xmlns="http://www.w3.org/2000/svg" xmlns:xlink="http://www.w3.org/1999/xlink" width="25" height="22" viewBox="0 0 25 22"><path id="Cart" d="M24.899,8.593 C24.767,9.004 24.550,9.386 24.377,9.784 C23.620,11.530 22.878,13.284 22.103,15.023 C21.468,16.448 20.325,17.211 18.796,17.267 C17.034,17.331 15.267,17.284 13.502,17.285 C11.904,17.286 10.306,17.283 8.707,17.286 C7.778,17.288 7.098,16.659 6.949,15.740 C6.754,14.544 6.504,13.358 6.276,12.168 C6.010,10.780 5.729,9.396 5.491,8.004 C5.448,7.755 5.526,7.446 5.646,7.216 C5.962,6.608 6.481,6.279 7.182,6.279 C9.788,6.279 12.393,6.279 14.999,6.279 C14.999,6.278 14.999,6.278 14.999,6.277 C17.538,6.277 20.077,6.268 22.616,6.286 C23.033,6.289 23.468,6.357 23.861,6.492 C24.807,6.817 25.205,7.638 24.899,8.593 zM10.022,7.085 C9.028,7.085 8.055,7.076 7.081,7.089 C6.663,7.095 6.216,7.548 6.273,7.895 C6.356,8.405 6.467,8.910 6.568,9.427 C7.726,9.427 8.871,9.427 10.022,9.427 C10.022,8.640 10.022,7.868 10.022,7.085 zM10.022,10.254 C8.922,10.254 7.842,10.254 6.724,10.254 C6.894,11.136 7.057,11.987 7.221,12.842 C8.166,12.842 9.092,12.842 10.022,12.842 C10.022,11.968 10.022,11.112 10.022,10.254 zM10.029,13.676 C9.145,13.676 8.275,13.676 7.404,13.676 C7.404,13.728 7.398,13.771 7.405,13.811 C7.526,14.468 7.637,15.128 7.773,15.782 C7.845,16.128 8.079,16.407 8.417,16.442 C8.948,16.497 9.489,16.457 10.029,16.457 C10.029,15.524 10.029,14.607 10.029,13.676 zM14.780,7.095 C13.471,7.095 12.177,7.095 10.861,7.095 C10.861,7.885 10.861,8.656 10.861,9.422 C12.182,9.422 13.482,9.422 14.780,9.422 C14.780,8.638 14.780,7.872 14.780,7.095 zM14.783,10.259 C13.468,10.259 12.166,10.259 10.852,10.259 C10.852,11.124 10.852,11.975 10.852,12.840 C12.179,12.840 13.481,12.840 14.783,12.840 C14.783,11.971 14.783,11.120 14.783,10.259 zM14.786,13.678 C13.462,13.678 12.161,13.678 10.858,13.678 C10.858,14.617 10.858,15.539 10.858,16.464 C12.176,16.464 13.477,16.464 14.786,16.464 C14.786,15.531 14.786,14.614 14.786,13.678 zM20.368,15.912 C20.973,15.558 21.685,14.416 21.775,13.670 C21.311,13.670 20.848,13.670 20.368,13.670 C20.368,14.431 20.368,15.166 20.368,15.912 zM19.533,7.093 C18.223,7.093 16.929,7.093 15.614,7.093 C15.614,7.885 15.614,8.657 15.614,9.420 C16.934,9.420 18.234,9.420 19.533,9.420 C19.533,8.634 19.533,7.869 19.533,7.093 zM19.536,10.264 C18.212,10.264 16.911,10.264 15.607,10.264 C15.607,11.133 15.607,11.983 15.607,12.846 C16.920,12.846 18.222,12.846 19.536,12.846 C19.536,11.983 19.536,11.133 19.536,10.264 zM19.548,14.678 C19.548,14.347 19.548,14.015 19.548,13.677 C18.218,13.677 16.917,13.677 15.605,13.677 C15.605,14.608 15.605,15.525 15.605,16.470 C15.674,16.474 15.722,16.480 15.771,16.480 C16.753,16.479 17.734,16.484 18.716,16.474 C18.930,16.472 19.142,16.414 19.356,16.390 C19.516,16.372 19.554,16.284 19.551,16.134 C19.544,15.649 19.548,15.164 19.548,14.678 zM20.354,12.857 C20.939,12.857 21.502,12.862 22.065,12.849 C22.125,12.848 22.209,12.756 22.240,12.688 C22.469,12.178 22.688,11.665 22.910,11.152 C23.037,10.857 23.163,10.562 23.290,10.266 C22.294,10.266 21.327,10.266 20.354,10.266 C20.354,11.130 20.354,11.973 20.354,12.857 zM23.463,7.189 C23.376,7.162 23.285,7.131 23.196,7.131 C22.258,7.126 21.321,7.128 20.364,7.128 C20.364,7.884 20.364,8.649 20.364,9.438 C21.442,9.438 22.504,9.439 23.567,9.435 C23.606,9.435 23.663,9.398 23.680,9.363 C23.825,9.072 23.983,8.786 24.097,8.483 C24.346,7.827 24.127,7.397 23.463,7.189 zM6.113,19.588 C6.407,19.588 6.681,19.584 6.954,19.589 C7.249,19.593 7.419,19.750 7.412,20.000 C7.406,20.238 7.239,20.386 6.956,20.390 C6.598,20.395 6.241,20.393 5.883,20.391 C5.549,20.389 5.415,20.277 5.357,19.948 C5.168,18.886 4.984,17.824 4.795,16.763 C4.358,14.303 3.919,11.843 3.480,9.383 C3.257,8.132 3.032,6.882 2.814,5.631 C2.793,5.510 2.767,5.350 2.825,5.267 C2.904,5.153 3.054,5.050 3.189,5.025 C3.383,4.989 3.519,5.131 3.562,5.321 C3.633,5.639 3.687,5.960 3.745,6.281 C4.192,8.790 4.638,11.300 5.084,13.809 C5.408,15.636 5.730,17.462 6.053,19.289 C6.069,19.379 6.089,19.469 6.113,19.588 zM2.319,4.723 C1.038,4.721 -0.001,3.662 -0.000,2.361 C0.001,1.054 1.051,-0.002 2.350,-0.000 C3.645,0.001 4.706,1.070 4.699,2.367 C4.693,3.686 3.643,4.726 2.319,4.723 zM2.344,0.803 C1.498,0.805 0.805,1.498 0.800,2.348 C0.794,3.219 1.476,3.915 2.337,3.919 C3.194,3.923 3.897,3.224 3.899,2.367 C3.901,1.511 3.195,0.800 2.344,0.803 zM9.801,18.054 C10.878,18.080 11.733,18.967 11.725,20.052 C11.717,21.124 10.815,22.014 9.751,22.000 C8.671,21.986 7.793,21.097 7.802,20.027 C7.812,18.916 8.712,18.027 9.801,18.054 zM9.766,21.195 C10.407,21.191 10.920,20.672 10.920,20.025 C10.920,19.380 10.403,18.861 9.760,18.861 C9.125,18.861 8.599,19.392 8.602,20.030 C8.605,20.670 9.132,21.198 9.766,21.195 zM12.611,19.588 C13.101,19.585 13.591,19.587 14.081,19.587 C14.571,19.587 15.061,19.584 15.551,19.588 C15.846,19.591 16.033,19.746 16.038,19.977 C16.043,20.219 15.847,20.391 15.548,20.392 C14.568,20.395 13.587,20.394 12.607,20.392 C12.317,20.391 12.143,20.234 12.142,19.986 C12.141,19.739 12.312,19.590 12.611,19.588 zM18.359,18.054 C19.438,18.061 20.306,18.937 20.309,20.022 C20.312,21.107 19.444,21.993 18.370,22.000 C17.282,22.007 16.394,21.124 16.393,20.033 C16.392,18.939 17.278,18.048 18.359,18.054 zM18.358,21.196 C18.992,21.192 19.512,20.661 19.508,20.020 C19.505,19.375 18.983,18.855 18.345,18.861 C17.705,18.867 17.190,19.392 17.193,20.035 C17.197,20.675 17.724,21.200 18.358,21.196 zM21.236,19.594 C21.359,19.581 21.484,19.592 21.608,19.592 C21.724,19.592 21.841,19.582 21.956,19.594 C22.176,19.616 22.298,19.753 22.320,19.969 C22.340,20.170 22.184,20.364 21.968,20.381 C21.722,20.400 21.471,20.403 21.225,20.380 C21.012,20.361 20.883,20.219 20.875,19.995 C20.867,19.784 21.016,19.617 21.236,19.594 z" fill="#757575" /></svg>